<svg width="73" height="140" viewBox="0 0 73 140" fill="none" xmlns="http://www.w3.org/2000/svg">
<path d="M13.5891 84.2227C15.1717 83.8692 17.4924 82.9758 17.3743 81.0411C17.2267 78.6116 18.5848 76.6962 18.3664 74.4209C18.3368 74.0931 18.4313 73.6817 18.5967 73.3989C23.7695 64.6833 30.8438 58.3844 39.1051 53.281C42.9788 50.89 46.2089 47.2264 49.6338 44.0255C50.2716 43.4342 50.4724 42.2837 50.9152 41.3003C48.5945 41.1139 48.6418 41.0689 46.7758 38.9993C46.3211 38.4915 45.4707 38.2537 44.7798 38.1765C40.2861 37.6752 35.7805 37.2574 31.1568 36.2869C32.1193 35.8627 33.0523 35.2971 34.0562 35.0335C37.2686 34.198 40.4868 33.311 43.7405 32.7582C46.8466 32.2312 50.0058 32.1155 53.1415 31.7684C53.4839 31.7298 53.856 31.4406 54.1158 31.1578C54.7713 30.4508 55.3736 29.6859 55.9936 28.9467L56.5133 29.2681C56.3715 30.0523 56.2239 30.8364 56.0113 32.0126C56.6904 31.6206 57.3754 31.4792 57.6057 31.0421C58.5446 29.2745 59.5012 27.4877 60.1508 25.5852C61.1547 22.6414 62.1231 19.7427 63.8238 17.1267C64.6977 15.7834 64.9339 13.9515 65.4595 12.3382C65.5244 12.1326 65.5185 11.8755 65.6366 11.7148C67.3019 9.46518 68.9848 7.22201 70.7327 4.88242C66.9299 6.46357 63.0443 8.00616 59.2119 9.68372C55.2673 11.4127 51.3109 13.1417 47.4608 15.1085C42.2525 17.763 37.5284 21.1695 33.5011 25.7652C29.9344 29.8402 26.5567 34.1144 24.4781 39.1985C21.7441 45.8895 19.6714 52.9018 17.333 59.7792C17.0731 60.5505 16.896 61.3539 16.6775 62.1445C16.4118 62.0995 16.152 62.048 15.8862 62.0031C16.0161 60.949 16.0043 59.8434 16.2996 58.8472C17.9707 53.2617 19.3289 47.5156 21.5138 42.168C26.4209 30.1615 34.1093 20.7968 44.892 14.5171C52.9112 9.8444 61.3732 6.42501 69.9237 3.20486C70.8154 2.87063 71.6598 2.395 72.7109 1.89366C72.2858 1.64299 71.896 1.21878 71.6716 1.30877C69.2801 2.22146 67.2783 0.34465 65.0402 0.261093C62.749 0.183964 60.4638 0.0361329 58.1726 0.00399575C56.5959 -0.021714 55.0134 0.081125 53.4426 0.183964C53.3304 0.190391 53.2478 0.666022 53.047 0.267521C51.2754 0.441062 49.4272 0.331795 47.7442 0.852418C44.6558 1.81011 41.662 3.12773 38.6326 4.31681C38.2547 4.46464 37.9122 4.72816 37.6465 4.88242C38.8039 7.64622 39.7664 9.95367 40.9061 12.6725C40.1739 12.3318 39.8019 12.094 39.4003 11.9912C36.991 11.3741 34.5758 10.7571 32.1489 10.1979C31.2277 9.98581 30.2474 10.0437 29.3557 9.75442C27.6196 9.19523 26.1079 9.50375 25.0096 11.0399C22.4468 14.6136 19.9607 18.2579 17.4865 21.9087C17.1912 22.3393 17.0318 23.0335 17.0909 23.567C17.3802 26.093 15.839 27.282 14.2741 28.5932C14.7465 30.0587 14.7879 31.8969 13.4356 32.6939C11.1149 34.063 10.8433 36.4926 10.3531 38.6972C9.19575 43.9034 7.9793 49.1482 7.44785 54.4508C6.99316 58.9693 6.36131 63.5842 7.88482 68.1862C8.52847 70.1402 9.26661 72.4091 7.28841 74.6908C5.22753 77.0754 6.49712 81.7546 9.13079 83.5157C9.69768 83.8949 10.2291 84.3255 10.3118 84.3834C9.98703 86.9736 9.51462 89.1397 9.50872 91.3057C9.50872 92.9962 9.18985 94.2045 7.89072 95.1943C1.87934 99.7578 -2.15384 112.086 1.23569 119.599C1.99744 121.29 2.48757 123.289 3.63906 124.581C5.78261 126.984 10.737 140 10.737 140C10.737 140 16.0457 127.781 18.4549 125.545C21.5728 122.652 23.8227 115.319 22.0098 112.079C21.6319 111.411 21.2303 110.755 20.8288 110.08C22.5531 107.844 20.7756 105.742 19.8958 104.058C18.1951 100.799 15.7563 98.0031 13.8667 94.8408C13.3411 93.9603 13.6364 92.4755 13.6187 91.2608C13.5891 88.9405 13.6128 86.6201 13.6128 84.2356L13.5891 84.2227ZM17.0791 114.56C16.9964 115.216 16.9491 116.116 16.7543 116.971C15.9453 120.583 10.548 131.567 10.548 131.567C10.548 131.567 5.05628 118.217 4.66654 116.174C3.63315 110.704 5.20391 105.742 8.30408 101.326C9.82169 99.1665 11.2389 99.0765 12.792 101.217C15.5733 105.054 16.7188 109.54 17.0791 114.554V114.56ZM13.3352 82.4744C12.4731 81.8189 11.7586 81.5232 11.422 80.9576C10.8078 79.9228 9.89255 78.6051 10.0815 77.6346C10.2764 76.6383 11.5342 75.6099 12.538 75.1857C13.0282 74.9801 14.2564 75.9185 14.6993 76.6576C15.6087 78.1745 14.4926 81.6839 13.3411 82.4744H13.3352Z" fill="#11292F"/>
</svg>
